HIERARCHY
ROOT root
{
	OFFSET	0	13.1	24.9
	CHANNELS 6  Xposition Yposition Zposition Xrotation Yrotation Zrotation
	JOINT spine_1
	{
		OFFSET	0	9.99999	0
		CHANNELS 3  Xrotation Yrotation Zrotation
		JOINT spine_2
		{
			OFFSET	0	112	-10
			CHANNELS 3  Xrotation Yrotation Zrotation
			JOINT spine_3
			{
				OFFSET	0	206.5	19.3
				CHANNELS 3  Xrotation Yrotation Zrotation
				JOINT spine_4
				{
					OFFSET	0	110.4	14.6
					CHANNELS 3  Xrotation Yrotation Zrotation
					JOINT neck_1
					{
						OFFSET	0	71.8	-50.3
						CHANNELS 3  Xrotation Yrotation Zrotation
						JOINT neck_2
						{
							OFFSET	0	86.2	-25.8
							CHANNELS 3  Xrotation Yrotation Zrotation
							JOINT head_ee
							{
								OFFSET	0	179.8	-8.7
								CHANNELS 3  Xrotation Yrotation Zrotation
								End Site
								{
									OFFSET	1	0	0
								}
							}
						}
					}
					JOINT left_clavicle
					{
						OFFSET	-43.2	22.4	-70.8
						CHANNELS 3  Xrotation Yrotation Zrotation
						JOINT left_shoulder
						{
							OFFSET	-93.9	-5.79999	48.7
							CHANNELS 3  Xrotation Yrotation Zrotation
							JOINT left_elbow
							{
								OFFSET	-291.4	-30.8	15.2
								CHANNELS 3  Xrotation Yrotation Zrotation
								JOINT left_lowarm_twist
								{
									OFFSET	-110.7	-3.89999	13.6
									CHANNELS 3  Xrotation Yrotation Zrotation
									JOINT left_hand
									{
										OFFSET	-110.7	-3.89999	13.6
										CHANNELS 3  Xrotation Yrotation Zrotation
										JOINT left_ee
										{
											OFFSET	-80.8	-5.10001	12.1
											CHANNELS 3  Xrotation Yrotation Zrotation
											End Site
											{
												OFFSET	1	0	0
											}
										}
									}
								}
							}
						}
					}
					JOINT right_clavicle
					{
						OFFSET	43.2	22.4	-70.8
						CHANNELS 3  Xrotation Yrotation Zrotation
						JOINT right_shoulder
						{
							OFFSET	93.9	-5.79999	48.7
							CHANNELS 3  Xrotation Yrotation Zrotation
							JOINT right_elbow
							{
								OFFSET	291.4	-30.8	15.2
								CHANNELS 3  Xrotation Yrotation Zrotation
								JOINT right_lowarm_twist
								{
									OFFSET	110.7	-3.89999	13.6
									CHANNELS 3  Xrotation Yrotation Zrotation
									JOINT right_hand
									{
										OFFSET	110.7	-3.89999	13.6
										CHANNELS 3  Xrotation Yrotation Zrotation
										JOINT right_ee
										{
											OFFSET	80.8	-5.10001	12.1
											CHANNELS 3  Xrotation Yrotation Zrotation
											End Site
											{
												OFFSET	1	0	0
											}
										}
									}
								}
							}
						}
					}
				}
			}
		}
	}
	JOINT left_hip
	{
		OFFSET	-82.8	-127.5	0.300001
		CHANNELS 3  Xrotation Yrotation Zrotation
		JOINT left_knee
		{
			OFFSET	-28.2	-396.7	2.2
			CHANNELS 3  Xrotation Yrotation Zrotation
			JOINT left_ankle
			{
				OFFSET	-11.7	-411.3	35.4
				CHANNELS 3  Xrotation Yrotation Zrotation
				JOINT left_toes
				{
					OFFSET	0	-60	-88.6
					CHANNELS 3  Xrotation Yrotation Zrotation
					JOINT left_foot_ee
					{
						OFFSET	-22.5	-16.5	-42.2
						CHANNELS 3  Xrotation Yrotation Zrotation
						End Site
						{
							OFFSET	1	0	0
						}
					}
				}
			}
		}
	}
	JOINT right_hip
	{
		OFFSET	82.8	-127.5	0.300001
		CHANNELS 3  Xrotation Yrotation Zrotation
		JOINT right_knee
		{
			OFFSET	28.2	-396.7	2.2
			CHANNELS 3  Xrotation Yrotation Zrotation
			JOINT right_ankle
			{
				OFFSET	11.7	-411.3	35.4
				CHANNELS 3  Xrotation Yrotation Zrotation
				JOINT right_toes
				{
					OFFSET	0	-60	-88.6
					CHANNELS 3  Xrotation Yrotation Zrotation
					JOINT right_foot_ee
					{
						OFFSET	22.5	-16.5	-42.2
						CHANNELS 3  Xrotation Yrotation Zrotation
						End Site
						{
							OFFSET	1	0	0
						}
					}
				}
			}
		}
	}
}
MOTION
Frames: 16
Frame Time: 0.02
3574.42 741.953 -1474.73 -14.8316289436 67.8103117314 7.7102557966 2.546 1.21959 4.31255 2.55585 0.942966 4.38124 2.62664 0.207844 4.47656 2.59984 0.911539 4.38787 -10.1134 15.0443 4.25768 -10.3008 25.5247 7.99724 -0.0 0.0 -0.0 -8.62886 25.7655 -8.4343 3.48654 -0.951051 70.1973 2.20753 -47.5522 0.972636 -15.0589 -0.766809 1.76069 1.08318 -8.21679 3.82779 -0.0 0.0 -0.0 14.097 27.6506 -28.0146 -11.1946 19.7502 -70.4751 0.187927 5.31866 -0.0087287 23.5113 -0.220941 2.97422 0.179116 -14.9712 -7.24741 0.0 0.0 0.0 -4.55174 18.7016 11.1871 -10.8143 0.292021 1.63149 40.814 21.6645 -5.14531 -26.4355 0.0 0.0 -0.0 0.0 -0.0 24.7712 41.4106 -10.9107 -36.9854 0.286201 -5.57161 40.7479 7.1919 5.03205 -33.67 0.0 0.0 0.0 0.0 0.0 
3574.42 741.953 -1474.73 -14.3392991865 67.0233872912 7.17705395618 2.546 1.21959 4.31255 2.55585 0.942966 4.38124 2.62664 0.207844 4.47656 2.59984 0.911539 4.38787 -10.1134 15.0443 4.25768 -10.3008 25.5247 7.99724 -0.0 0.0 -0.0 -8.62886 25.7655 -8.4343 3.48654 -0.951051 70.1973 2.20753 -47.5522 0.972636 -15.0589 -0.766809 1.76069 1.08318 -8.21679 3.82779 -0.0 0.0 -0.0 14.097 27.6506 -28.0146 -11.1946 19.7502 -70.4751 0.187927 5.31866 -0.0087287 23.5113 -0.220941 2.97422 0.179116 -14.9712 -7.24741 0.0 0.0 0.0 -4.55174 18.7016 11.1871 -10.8143 0.292021 1.63149 40.814 21.6645 -5.14531 -26.4355 0.0 0.0 -0.0 0.0 -0.0 24.7712 41.4106 -10.9107 -36.9854 0.286201 -5.57161 40.7479 7.1919 5.03205 -33.67 0.0 0.0 0.0 0.0 0.0 
3574.42 741.953 -1474.73 -13.7622344587 66.0219084801 6.54793197103 2.546 1.21959 4.31255 2.55585 0.942966 4.38124 2.62664 0.207844 4.47656 2.59984 0.911539 4.38787 -10.1134 15.0443 4.25768 -10.3008 25.5247 7.99724 -0.0 0.0 -0.0 -8.62886 25.7655 -8.4343 3.48654 -0.951051 70.1973 2.20753 -47.5522 0.972636 -15.0589 -0.766809 1.76069 1.08318 -8.21679 3.82779 -0.0 0.0 -0.0 14.097 27.6506 -28.0146 -11.1946 19.7502 -70.4751 0.187927 5.31866 -0.0087287 23.5113 -0.220941 2.97422 0.179116 -14.9712 -7.24741 0.0 0.0 0.0 -4.55174 18.7016 11.1871 -10.8143 0.292021 1.63149 40.814 21.6645 -5.14531 -26.4355 0.0 0.0 -0.0 0.0 -0.0 24.7712 41.4106 -10.9107 -36.9854 0.286201 -5.57161 40.7479 7.1919 5.03205 -33.67 0.0 0.0 0.0 0.0 0.0 
3574.42 741.953 -1474.73 -13.1726141556 64.8978018053 5.89979524775 2.546 1.21959 4.31255 2.55585 0.942966 4.38124 2.62664 0.207844 4.47656 2.59984 0.911539 4.38787 -10.1134 15.0443 4.25768 -10.3008 25.5247 7.99724 -0.0 0.0 -0.0 -8.62886 25.7655 -8.4343 3.48654 -0.951051 70.1973 2.20753 -47.5522 0.972636 -15.0589 -0.766809 1.76069 1.08318 -8.21679 3.82779 -0.0 0.0 -0.0 14.097 27.6506 -28.0146 -11.1946 19.7502 -70.4751 0.187927 5.31866 -0.0087287 23.5113 -0.220941 2.97422 0.179116 -14.9712 -7.24741 0.0 0.0 0.0 -4.55174 18.7016 11.1871 -10.8143 0.292021 1.63149 40.814 21.6645 -5.14531 -26.4355 0.0 0.0 -0.0 0.0 -0.0 24.7712 41.4106 -10.9107 -36.9854 0.286201 -5.57161 40.7479 7.1919 5.03205 -33.67 0.0 0.0 0.0 0.0 0.0 
3574.42 741.953 -1474.73 -12.6068568084 63.7081745785 5.27197810823 2.546 1.21959 4.31255 2.55585 0.942966 4.38124 2.62664 0.207844 4.47656 2.59984 0.911539 4.38787 -10.1134 15.0443 4.25768 -10.3008 25.5247 7.99724 -0.0 0.0 -0.0 -8.62886 25.7655 -8.4343 3.48654 -0.951051 70.1973 2.20753 -47.5522 0.972636 -15.0589 -0.766809 1.76069 1.08318 -8.21679 3.82779 -0.0 0.0 -0.0 14.097 27.6506 -28.0146 -11.1946 19.7502 -70.4751 0.187927 5.31866 -0.0087287 23.5113 -0.220941 2.97422 0.179116 -14.9712 -7.24741 0.0 0.0 0.0 -4.55174 18.7016 11.1871 -10.8143 0.292021 1.63149 40.814 21.6645 -5.14531 -26.4355 0.0 0.0 -0.0 0.0 -0.0 24.7712 41.4106 -10.9107 -36.9854 0.286201 -5.57161 40.7479 7.1919 5.03205 -33.67 0.0 0.0 0.0 0.0 0.0 
3574.42 741.953 -1474.73 -11.9610923401 62.193940175 4.54696915764 2.546 1.21959 4.31255 2.55585 0.942966 4.38124 2.62664 0.207844 4.47656 2.59984 0.911539 4.38787 -10.1134 15.0443 4.25768 -10.3008 25.5247 7.99724 -0.0 0.0 -0.0 -8.62886 25.7655 -8.4343 3.48654 -0.951051 70.1973 2.20753 -47.5522 0.972636 -15.0589 -0.766809 1.76069 1.08318 -8.21679 3.82779 -0.0 0.0 -0.0 14.097 27.6506 -28.0146 -11.1946 19.7502 -70.4751 0.187927 5.31866 -0.0087287 23.5113 -0.220941 2.97422 0.179116 -14.9712 -7.24741 0.0 0.0 0.0 -4.55174 18.7016 11.1871 -10.8143 0.292021 1.63149 40.814 21.6645 -5.14531 -26.4355 0.0 0.0 -0.0 0.0 -0.0 24.7712 41.4106 -10.9107 -36.9854 0.286201 -5.57161 40.7479 7.1919 5.03205 -33.67 0.0 0.0 0.0 0.0 0.0 
3574.42 741.953 -1474.73 -11.3532310667 60.5869962275 3.8546380176 2.546 1.21959 4.31255 2.55585 0.942966 4.38124 2.62664 0.207844 4.47656 2.59984 0.911539 4.38787 -10.1134 15.0443 4.25768 -10.3008 25.5247 7.99724 -0.0 0.0 -0.0 -8.62886 25.7655 -8.4343 3.48654 -0.951051 70.1973 2.20753 -47.5522 0.972636 -15.0589 -0.766809 1.76069 1.08318 -8.21679 3.82779 -0.0 0.0 -0.0 14.097 27.6506 -28.0146 -11.1946 19.7502 -70.4751 0.187927 5.31866 -0.0087287 23.5113 -0.220941 2.97422 0.179116 -14.9712 -7.24741 0.0 0.0 0.0 -4.55174 18.7016 11.1871 -10.8143 0.292021 1.63149 40.814 21.6645 -5.14531 -26.4355 0.0 0.0 -0.0 0.0 -0.0 24.7712 41.4106 -10.9107 -36.9854 0.286201 -5.57161 40.7479 7.1919 5.03205 -33.67 0.0 0.0 0.0 0.0 0.0 
3574.42 741.953 -1474.73 -10.6616031634 58.4962365568 3.05242011841 2.546 1.21959 4.31255 2.55585 0.942966 4.38124 2.62664 0.207844 4.47656 2.59984 0.911539 4.38787 -10.1134 15.0443 4.25768 -10.3008 25.5247 7.99724 -0.0 0.0 -0.0 -8.62886 25.7655 -8.4343 3.48654 -0.951051 70.1973 2.20753 -47.5522 0.972636 -15.0589 -0.766809 1.76069 1.08318 -8.21679 3.82779 -0.0 0.0 -0.0 14.097 27.6506 -28.0146 -11.1946 19.7502 -70.4751 0.187927 5.31866 -0.0087287 23.5113 -0.220941 2.97422 0.179116 -14.9712 -7.24741 0.0 0.0 0.0 -4.55174 18.7016 11.1871 -10.8143 0.292021 1.63149 40.814 21.6645 -5.14531 -26.4355 0.0 0.0 -0.0 0.0 -0.0 24.7712 41.4106 -10.9107 -36.9854 0.286201 -5.57161 40.7479 7.1919 5.03205 -33.67 0.0 0.0 0.0 0.0 0.0 
3568.0087303 744.069 -1476.98078515 -11.7208057524 60.1636516299 3.30410933611 2.52567 1.23793 4.44877 2.53618 0.952637 4.51833 2.60994 0.193463 4.61342 2.58143 0.918886 4.5253 -9.89604 14.3708 4.59531 -10.0318 23.9841 8.09056 -0.0 0.0 -0.0 -8.72414 26.1524 -8.4156 1.01962 -0.425605 71.0648 2.16303 -46.9709 0.939952 -15.2079 -0.776671 1.77701 1.1886 -9.68405 3.91281 -0.0 0.0 -0.0 14.1837 27.2799 -28.2678 -8.3737 19.3163 -70.468 0.203265 5.74995 -0.010208 24.0731 -0.211216 3.04533 -0.0874954 -17.7632 -6.68285 0.0 0.0 0.0 -3.2558 18.4032 11.6412 -12.054 0.305687 1.82121 40.0072 21.2519 -5.05982 -26.2352 0.0 0.0 -0.0 0.0 -0.0 23.9807 41.76 -11.2486 -35.9185 0.227727 -5.41846 40.4405 5.58422 4.97826 -33.1097 0.0 0.0 0.0 0.0 0.0 
3568.14782638 744.069 -1477.34347491 -10.6798253436 56.9499654815 2.08445173395 2.52567 1.23793 4.44877 2.53618 0.952637 4.51833 2.60994 0.193463 4.61342 2.58143 0.918886 4.5253 -9.89604 14.3708 4.59531 -10.0318 23.9841 8.09056 -0.0 0.0 -0.0 -8.72414 26.1524 -8.4156 1.01962 -0.425605 71.0648 2.16303 -46.9709 0.939952 -15.2079 -0.776671 1.77701 1.1886 -9.68405 3.91281 -0.0 0.0 -0.0 14.1837 27.2799 -28.2678 -8.3737 19.3163 -70.468 0.203265 5.74995 -0.010208 24.0731 -0.211216 3.04533 -0.0874954 -17.7632 -6.68285 0.0 0.0 0.0 -3.2558 18.4032 11.6412 -12.054 0.305687 1.82121 40.0072 21.2519 -5.05982 -26.2352 0.0 0.0 -0.0 0.0 -0.0 23.9807 41.76 -11.2486 -35.9185 0.227727 -5.41846 40.4405 5.58422 4.97826 -33.1097 0.0 0.0 0.0 0.0 0.0 
3568.41538839 744.069 -1477.91041702 -9.39412327651 51.7423746238 0.503820908736 2.52567 1.23793 4.44877 2.53618 0.952637 4.51833 2.60994 0.193463 4.61342 2.58143 0.918886 4.5253 -9.89604 14.3708 4.59531 -10.0318 23.9841 8.09056 -0.0 0.0 -0.0 -8.72414 26.1524 -8.4156 1.01962 -0.425605 71.0648 2.16303 -46.9709 0.939952 -15.2079 -0.776671 1.77701 1.1886 -9.68405 3.91281 -0.0 0.0 -0.0 14.1837 27.2799 -28.2678 -8.3737 19.3163 -70.468 0.203265 5.74995 -0.010208 24.0731 -0.211216 3.04533 -0.0874954 -17.7632 -6.68285 0.0 0.0 0.0 -3.2558 18.4032 11.6412 -12.054 0.305687 1.82121 40.0072 21.2519 -5.05982 -26.2352 0.0 0.0 -0.0 0.0 -0.0 23.9807 41.76 -11.2486 -35.9185 0.227727 -5.41846 40.4405 5.58422 4.97826 -33.1097 0.0 0.0 0.0 0.0 0.0 
3562.4082189 740.141 -1478.95457154 -8.8968151201 52.345579168 -0.276263962343 2.46612 1.06586 4.56006 2.47735 0.773846 4.61846 2.53829 -0.00588758 4.6827 2.50845 0.732929 4.62512 -9.9237 13.7541 4.83025 -10.0329 22.6636 8.15811 -0.0 0.0 -0.0 -8.58341 25.7317 -8.38486 -0.754666 2.19894 71.8464 2.14338 -46.7101 0.925613 -15.2896 -0.78209 1.78595 1.13822 -9.90476 3.47712 -0.0 0.0 -0.0 13.9319 26.3766 -27.7968 -6.89783 18.9553 -71.5165 0.214299 6.05984 -0.0113432 24.4101 -0.205046 3.08794 -0.165521 -19.4487 -6.86623 0.0 0.0 0.0 -2.44201 18.7596 10.0731 -12.8739 0.31247 1.94682 39.5146 21.7094 -5.02536 -26.8722 0.0 0.0 -0.0 0.0 -0.0 21.9805 41.4167 -8.29392 -36.7945 0.275532 -5.5443 40.0034 4.15552 4.91976 -32.4773 0.0 0.0 0.0 0.0 0.0 
3546.54703023 744.865 -1469.16048787 -11.0182250996 60.7083503795 1.76403247676 2.33424 0.915486 4.60292 2.3458 0.621061 4.6517 2.39504 -0.174347 4.68966 2.36481 0.567664 4.6585 -10.7757 12.2069 4.16355 -10.9029 20.3173 7.2619 -0.0 0.0 -0.0 -7.90017 25.0055 -7.71086 -4.3223 6.13045 73.5931 2.06824 -45.6892 0.87138 -15.9717 -0.827886 1.86029 0.899039 -7.4415 2.91245 -0.0 0.0 -0.0 13.4801 25.4827 -26.851 -3.97796 16.3172 -70.8223 0.264626 7.46837 -0.0172711 26.8525 -0.152863 3.39554 -0.0317044 -21.7221 -8.53308 0.0 0.0 0.0 -1.30738 20.0836 10.4558 -14.7131 0.32114 2.22887 41.2758 14.1786 -5.03308 -28.2465 0.0 0.0 -0.0 0.0 -0.0 18.3284 37.9164 -4.54026 -37.4104 0.310292 -5.63233 39.8184 5.65837 4.92613 -31.5133 0.0 0.0 0.0 0.0 0.0 
3546.2959782 744.865 -1470.6115893 -10.1034471743 57.7896734982 0.69994483605 2.33424 0.915486 4.60292 2.3458 0.621061 4.6517 2.39504 -0.174347 4.68966 2.36481 0.567664 4.6585 -10.7757 12.2069 4.16355 -10.9029 20.3173 7.2619 -0.0 0.0 -0.0 -7.90017 25.0055 -7.71086 -4.3223 6.13045 73.5931 2.06824 -45.6892 0.87138 -15.9717 -0.827886 1.86029 0.899039 -7.4415 2.91245 -0.0 0.0 -0.0 13.4801 25.4827 -26.851 -3.97796 16.3172 -70.8223 0.264626 7.46837 -0.0172711 26.8525 -0.152863 3.39554 -0.0317044 -21.7221 -8.53308 0.0 0.0 0.0 -1.30738 20.0836 10.4558 -14.7131 0.32114 2.22887 41.2758 14.1786 -5.03308 -28.2465 0.0 0.0 -0.0 0.0 -0.0 18.3284 37.9164 -4.54026 -37.4104 0.310292 -5.63233 39.8184 5.65837 4.92613 -31.5133 0.0 0.0 0.0 0.0 0.0 
3526.96662559 751.37 -1462.00291286 -12.0159658398 65.9786119941 2.76038997061 2.29145 0.938482 4.47175 2.30234 0.65233 4.52226 2.35289 -0.124873 4.56727 2.32429 0.597254 4.52985 -13.4151 10.0666 1.15877 -13.6539 18.4611 4.22736 -0.0 0.0 -0.0 -6.90135 24.0332 -6.64964 -7.05569 8.29813 74.4662 1.74925 -40.9062 0.652432 -15.1708 -0.774212 1.77295 0.330263 -0.797245 1.8738 -0.0 0.0 -0.0 13.4138 26.8532 -26.5306 -0.79341 14.3796 -69.5453 0.378937 10.6317 -0.0352588 30.8185 -0.0403328 3.88955 0.174011 -22.0543 -9.87282 0.0 0.0 0.0 1.11698 22.9913 7.02178 -14.734 0.321187 2.23208 41.0001 9.13422 -4.95706 -26.8667 0.0 0.0 -0.0 0.0 -0.0 13.5145 34.488 0.0215247 -39.4783 0.433911 -5.92512 40.5661 6.4133 5.0027 -27.7175 0.0 0.0 0.0 0.0 0.0 
3501.22194236 749.44 -1454.07463203 -2.33550572666 71.6591172831 -5.83976450499 1.54831 1.12206 4.47717 1.55907 0.835198 4.53932 1.6269 -0.00557198 4.61535 1.59792 0.722638 4.55855 -15.6201 8.85914 -0.230881 -15.9014 17.1012 2.86854 -0.0 0.0 -0.0 -6.29303 23.29 -6.02446 -9.11322 9.38246 74.6862 1.35551 -33.8787 0.412869 -14.7751 -0.748139 1.72952 -0.0563912 4.35744 1.45328 -0.0 0.0 -0.0 13.3775 27.4626 -26.3682 1.54181 13.9282 -68.922 0.477759 13.3153 -0.0557659 33.4595 0.053464 4.21376 0.33708 -22.2117 -10.896 0.0 0.0 0.0 5.0859 25.3897 4.64444 -13.8451 0.318176 2.09574 40.3179 6.89983 -4.88809 -26.2329 0.0 0.0 -0.0 0.0 -0.0 8.84606 31.6748 2.05685 -41.3049 0.551862 -6.17997 40.5197 6.60987 5.00219 -24.7542 0.0 0.0 0.0 0.0 0.0 
